<svg fill="#f5f5f5" height="20" viewBox="0 0 16 16" width="20" xmlns="http://www.w3.org/2000/svg"><path d="m11 1.5v1h3.5a.5.5 0 0 1 0 1h-.538l-.853 10.66a2 2 0 0 1 -1.994 1.84h-6.23a2 2 0 0 1 -1.994-1.84l-.853-10.66h-.538a.5.5 0 0 1 0-1h3.5v-1a1.5 1.5 0 0 1 1.5-1.5h3a1.5 1.5 0 0 1 1.5 1.5zm-5 0v1h4v-1a.5.5 0 0 0 -.5-.5h-3a.5.5 0 0 0 -.5.5zm-1.5 3.529.5 8.5a.5.5 0 1 0 .998-.06l-.5-8.5a.5.5 0 1 0 -.998.06zm6.53-.528a.5.5 0 0 0 -.528.47l-.5 8.5a.5.5 0 0 0 .998.058l.5-8.5a.5.5 0 0 0 -.47-.528zm-3.03-.001a.5.5 0 0 0 -.5.5v8.5a.5.5 0 0 0 1 0v-8.5a.5.5 0 0 0 -.5-.5z"/></svg>